<svg width="24.000000" height="21.837646" viewBox="0 0 24 21.8376" fill="none" xmlns="http://www.w3.org/2000/svg" xmlns:xlink="http://www.w3.org/1999/xlink">
    <desc>
        Created with Pixso.
    </desc>
    <defs/>
    <path id="Vector" d="M23.82 15.16L18.12 1.41C17.77 0.55 16.93 0.01 16.05 0C15.74 -0.01 15.43 0.05 15.13 0.17L6.66 3.67C5.8 4.03 5.27 4.86 5.25 5.74C5.24 6.05 5.29 6.36 5.42 6.67L11.12 20.42C11.48 21.29 12.32 21.82 13.22 21.83C13.52 21.83 13.82 21.78 14.11 21.66L22.58 18.15C23.74 17.67 24.3 16.33 23.82 15.16ZM7.55 6.89C6.92 6.89 6.4 6.37 6.4 5.74C6.4 5.11 6.92 4.59 7.55 4.59C8.19 4.59 8.7 5.11 8.7 5.74C8.7 6.37 8.19 6.89 7.55 6.89ZM1.41 19.42L2.96 20.06L2.96 9.69L0.17 16.42C-0.31 17.59 0.24 18.94 1.41 19.42ZM5.25 19.53C5.25 20.8 6.29 21.83 7.55 21.83L9.23 21.83L5.25 12.25L5.25 19.53Z" fill="#000000" fill-opacity="1.000000" fill-rule="nonzero"/>
</svg>
