<svg width="194.419434" height="50.000000" viewBox="0 0 194.419 50" fill="none" xmlns="http://www.w3.org/2000/svg" xmlns:xlink="http://www.w3.org/1999/xlink">
    <desc>
        Created with Pixso.
    </desc>
    <defs>
        <clipPath id="clip208_444">
            <rect id="logo" rx="-0.500000" width="193.419342" height="49.000000" transform="translate(0.500000 0.500000)" fill="white" fill-opacity="0"/>
        </clipPath>
    </defs>
    <rect id="logo" rx="-0.500000" width="193.419342" height="49.000000" transform="translate(0.500000 0.500000)" fill="#FFFFFF" fill-opacity="0"/>
    <g clip-path="url(#clip208_444)">
        <path id="Vector" d="M56.8 37.66C65.14 25.23 61.81 8.33 49.37 0L41.79 11.31C47.98 15.46 49.64 23.88 45.49 30.07C41.33 36.27 32.92 37.93 26.72 33.78L19.14 45.09C31.57 53.43 48.47 50.09 56.8 37.66Z" fill="#30873E" fill-opacity="1.000000" fill-rule="nonzero"/>
        <path id="Vector" d="M42.27 4.93C41.86 4.65 41.43 4.39 41 4.13C40.49 3.83 40.44 3.81 40.44 3.81C39.9 3.53 39.37 3.5 39.26 3.75C39.15 3.99 38.61 4 38.06 3.75L37.83 3.65C37.27 3.41 36.91 3 37.02 2.75C37.13 2.5 36.76 2.12 36.18 1.92L34.67 1.44C34.09 1.28 33.57 1.37 33.52 1.65C33.47 1.93 32.93 2.08 32.34 1.97L32.1 1.92C31.5 1.81 31.06 1.49 31.11 1.2C31.17 0.9 30.71 0.61 30.11 0.55L28.51 0.42C27.9 0.4 27.42 0.63 27.44 0.93C27.45 1.23 26.97 1.51 26.36 1.54L26.11 1.55C25.51 1.59 25 1.36 24.98 1.04C24.97 0.73 24.46 0.53 23.86 0.6L22.26 0.85C21.67 0.96 21.25 1.31 21.35 1.63C21.44 1.94 21.04 2.34 20.46 2.51L20.22 2.58C19.63 2.75 19.08 2.62 18.99 2.3C18.9 1.97 18.35 1.88 17.78 2.08L16.26 2.7C15.71 2.95 15.4 3.4 15.57 3.71C15.75 4.02 15.46 4.51 14.93 4.81L14.72 4.93C14.19 5.23 13.61 5.22 13.43 4.9C13.24 4.58 12.68 4.59 12.18 4.93L10.81 5.89C10.33 6.26 10.15 6.79 10.41 7.07C10.67 7.35 10.52 7.92 10.08 8.33L9.89 8.5C9.45 8.91 8.87 9.02 8.6 8.73C8.33 8.44 7.77 8.56 7.36 9.01L6.24 10.27C5.86 10.74 5.82 11.32 6.16 11.54C6.5 11.77 6.5 12.37 6.16 12.87L6.02 13.08C5.69 13.59 5.12 13.81 4.78 13.57C4.43 13.34 4.02 13.35 3.87 13.59L3.74 13.82C3.21 14.73 2.78 15.61 2.78 15.61C2.52 16.16 2.64 16.73 3.05 16.89C3.45 17.03 3.61 17.62 3.41 18.2L3.32 18.43C3.11 19 2.59 19.34 2.17 19.18C1.75 19.02 1.27 19.37 1.1 19.95L0.66 21.63C0.53 22.22 0.8 22.75 1.25 22.81C1.71 22.86 2.02 23.4 1.95 24L1.91 24.25C1.84 24.85 1.4 25.3 0.93 25.24C0.47 25.19 0.06 25.63 0.03 26.24L0 27.99C0.01 28.59 0.4 29.04 0.88 28.99C1.35 28.95 1.79 29.39 1.86 30L1.88 30.25C1.95 30.85 1.61 31.39 1.14 31.44C0.66 31.49 0.35 32.02 0.46 32.61L0.84 34.33C1 34.92 1.5 35.26 1.96 35.1C2.42 34.94 2.96 35.27 3.16 35.85L3.25 36.08C3.45 36.66 3.23 37.26 2.77 37.42C2.3 37.59 2.13 38.18 2.37 38.73L3.14 40.32C3.43 40.86 4 41.08 4.42 40.81C4.84 40.54 5.45 40.73 5.78 41.24L5.92 41.45C6.25 41.96 6.17 42.6 5.75 42.87C5.33 43.14 5.29 43.76 5.66 44.24L6.79 45.61C7.19 46.06 7.8 46.14 8.15 45.78C8.5 45.41 9.13 45.46 9.58 45.88L9.76 46.05C10.19 46.47 10.27 47.11 9.93 47.47C9.58 47.82 9.69 48.44 10.15 48.82C10.15 48.82 10.86 49.4 11.7 49.98L19.45 38.87C18.95 38.53 18.48 38.16 18.04 37.76C16.76 36.61 15.75 35.25 15 33.77C12.98 29.75 12.97 24.84 15.42 20.68C17.81 16.61 21.98 14.23 26.37 13.95C28.99 13.79 31.7 14.38 34.15 15.82C34.32 15.92 34.5 16.03 34.67 16.14L42.28 4.93L42.27 4.93Z" fill="#000000" fill-opacity="1.000000" fill-rule="nonzero"/>
        <path id="Vector" d="M87.5 29.58L88.75 32.03C88.16 32.65 87.32 33.15 86.23 33.55C85.14 33.94 84 34.13 82.79 34.13C79.95 34.13 77.64 33.25 75.85 31.5C74.08 29.74 73.19 27.42 73.19 24.53C73.19 21.65 74.04 19.47 75.72 17.65C77.39 15.84 79.72 14.94 82.71 14.94C85.09 14.94 86.98 15.56 88.38 16.83L86.92 19.24C85.66 18.41 84.26 17.99 82.71 17.99C80.94 17.99 79.48 18.59 78.36 19.77C77.22 20.96 76.65 22.55 76.65 24.53C76.65 26.52 77.25 28.06 78.43 29.26C79.64 30.47 81.19 31.07 83.09 31.07C84.72 31.07 86.19 30.58 87.5 29.58L87.5 29.58Z" fill="#000000" fill-opacity="1.000000" fill-rule="nonzero"/>
        <path id="Vector" d="M95.71 18.29L89.67 18.29L89.67 15.23L105.01 15.23L105.01 18.29L98.98 18.29L98.98 33.84L95.71 33.84L95.71 18.29Z" fill="#000000" fill-opacity="1.000000" fill-rule="nonzero"/>
        <path id="Vector" d="M115.75 26.02L113.04 19.4L110.3 26.02L115.75 26.02ZM107.11 33.84L103.82 33.84L111.69 15.17L114.56 15.17L122.42 33.84L118.94 33.84L117 29.08L109.05 29.08L107.11 33.84Z" fill="#000000" fill-opacity="1.000000" fill-rule="nonzero"/>
        <path id="Vector" d="M127.29 18.29L121.25 18.29L121.25 15.23L136.6 15.23L136.6 18.29L130.56 18.29L130.56 33.84L127.29 33.84L127.29 18.29Z" fill="#000000" fill-opacity="1.000000" fill-rule="nonzero"/>
        <path id="Vector" d="M152.07 20.63L142.31 33.84L139.44 33.84L139.44 15.23L142.71 15.23L142.71 28.47L152.46 15.23L155.34 15.23L155.34 33.84L152.07 33.84L152.07 20.63Z" fill="#000000" fill-opacity="1.000000" fill-rule="nonzero"/>
        <path id="Vector" d="M163.76 33.84L160.5 33.84L160.5 15.23L163.76 15.23L163.76 24.05L171.1 15.23L175.04 15.23L167.38 23.89L175.51 33.84L171.37 33.84L163.76 24.24L163.76 33.84Z" fill="#000000" fill-opacity="1.000000" fill-rule="nonzero"/>
        <path id="Vector" d="M187.74 26.02L185.03 19.4L182.3 26.02L187.74 26.02ZM179.11 33.84L175.81 33.84L183.68 15.17L186.55 15.17L194.41 33.84L190.93 33.84L188.99 29.08L181.04 29.08L179.11 33.84Z" fill="#000000" fill-opacity="1.000000" fill-rule="nonzero"/>
        <path id="Vector" d="M84 40.11C84 40.48 84.12 40.78 84.34 41.02C84.58 41.26 84.86 41.37 85.2 41.37C85.57 41.37 85.87 41.25 86.08 41.02C86.31 40.77 86.42 40.48 86.42 40.11C86.42 39.75 86.3 39.44 86.06 39.2C85.83 38.96 85.54 38.84 85.2 38.84C84.86 38.84 84.57 38.96 84.34 39.2C84.11 39.43 84 39.74 84 40.11L84 40.11ZM83.33 40.11C83.33 39.58 83.51 39.14 83.85 38.79C84.21 38.43 84.66 38.26 85.2 38.26C85.75 38.26 86.2 38.43 86.55 38.77C86.91 39.12 87.08 39.57 87.08 40.12C87.08 40.67 86.91 41.1 86.55 41.45C86.19 41.8 85.74 41.97 85.2 41.97C84.66 41.97 84.21 41.8 83.86 41.46C83.51 41.12 83.33 40.67 83.33 40.12L83.33 40.11Z" fill="#000000" fill-opacity="1.000000" fill-rule="nonzero"/>
        <path id="Vector" d="M80.22 38.89L79.77 38.91L79.77 40.01C79.95 40.03 80.1 40.04 80.22 40.04C80.42 40.04 80.58 39.99 80.7 39.89C80.82 39.79 80.88 39.65 80.88 39.46C80.88 39.08 80.66 38.89 80.22 38.89L80.22 38.89ZM79.77 40.61L79.77 41.91L79.13 41.91L79.13 38.31C79.28 38.31 79.45 38.31 79.62 38.31C79.8 38.31 79.98 38.31 80.16 38.31C80.41 38.31 80.63 38.34 80.82 38.4C81.01 38.46 81.15 38.55 81.25 38.67C81.36 38.78 81.43 38.9 81.48 39.03C81.53 39.16 81.55 39.31 81.55 39.47C81.55 39.79 81.43 40.07 81.2 40.29C80.97 40.52 80.65 40.64 80.23 40.64C80.02 40.64 79.87 40.64 79.77 40.62L79.77 40.61Z" fill="#000000" fill-opacity="1.000000" fill-rule="nonzero"/>
        <path id="Vector" d="M76.8 41.91L76.17 41.91L76.17 38.91L74.56 38.91L74.56 41.91L73.93 41.91L73.93 38.31L76.8 38.31L76.8 41.91Z" fill="#000000" fill-opacity="1.000000" fill-rule="nonzero"/>
        <path id="Vector" d="M91.6 39.36L89.71 41.91L89.15 41.91L89.15 38.31L89.79 38.31L89.79 40.87L91.68 38.31L92.23 38.31L92.23 41.91L91.6 41.91L91.6 39.36Z" fill="#000000" fill-opacity="1.000000" fill-rule="nonzero"/>
        <path id="Vector" d="M100 40.37L99.55 40.37L99.55 41.32C99.71 41.33 99.85 41.35 99.97 41.35C100.41 41.35 100.63 41.17 100.63 40.83C100.63 40.68 100.58 40.56 100.47 40.49C100.36 40.41 100.2 40.37 100.01 40.37L100 40.37ZM99.96 38.89C99.8 38.89 99.68 38.9 99.56 38.91L99.56 39.82L99.98 39.82C100.14 39.82 100.28 39.78 100.38 39.69C100.47 39.61 100.52 39.49 100.52 39.34C100.52 39.2 100.47 39.09 100.38 39.01C100.28 38.93 100.14 38.89 99.96 38.89ZM98.93 41.92L98.93 38.33C99.3 38.32 99.64 38.3 99.97 38.3C100.37 38.3 100.66 38.38 100.86 38.54C101.05 38.7 101.15 38.92 101.15 39.2C101.15 39.58 100.98 39.86 100.64 40.01L100.64 40.02C100.84 40.07 100.99 40.17 101.1 40.32C101.21 40.46 101.27 40.64 101.27 40.86C101.27 41.21 101.15 41.48 100.92 41.67C100.67 41.85 100.35 41.95 99.93 41.95C99.52 41.95 99.19 41.94 98.93 41.92L98.93 41.92Z" fill="#000000" fill-opacity="1.000000" fill-rule="nonzero"/>
        <path id="Vector" d="M103.84 40.11C103.84 40.48 103.95 40.78 104.18 41.02C104.41 41.26 104.69 41.37 105.04 41.37C105.41 41.37 105.7 41.25 105.92 41.02C106.14 40.77 106.25 40.48 106.25 40.11C106.25 39.75 106.13 39.44 105.9 39.2C105.66 38.96 105.38 38.84 105.04 38.84C104.69 38.84 104.4 38.96 104.17 39.2C103.95 39.43 103.83 39.74 103.83 40.11L103.84 40.11ZM103.16 40.11C103.16 39.58 103.34 39.14 103.69 38.79C104.04 38.43 104.49 38.26 105.04 38.26C105.58 38.26 106.03 38.43 106.38 38.77C106.74 39.12 106.91 39.57 106.91 40.12C106.91 40.67 106.74 41.1 106.38 41.45C106.02 41.8 105.58 41.97 105.04 41.97C104.5 41.97 104.04 41.8 103.69 41.46C103.34 41.12 103.16 40.67 103.16 40.12L103.16 40.11Z" fill="#000000" fill-opacity="1.000000" fill-rule="nonzero"/>
        <path id="Vector" d="M110.01 38.91L109.94 39.53C109.92 39.97 109.85 40.34 109.75 40.67C109.65 41.02 109.56 41.23 109.49 41.33L110.99 41.33L110.99 38.91L110 38.91L110.01 38.91ZM109.01 42.56L108.41 42.56L108.41 41.32L108.8 41.32C108.9 41.2 109.01 40.94 109.13 40.53C109.26 40.11 109.33 39.61 109.36 39.03L109.39 38.31L111.62 38.31L111.62 41.32L112.11 41.32L112.11 42.56L111.51 42.56L111.51 41.91L109 41.91L109 42.56L109.01 42.56Z" fill="#000000" fill-opacity="1.000000" fill-rule="nonzero"/>
        <path id="Vector" d="M95.48 41.97C95.2 41.97 94.96 41.91 94.75 41.8C94.53 41.68 94.36 41.54 94.25 41.36L94.6 40.93C94.71 41.06 94.84 41.17 95 41.25C95.16 41.33 95.31 41.37 95.46 41.37C95.65 41.37 95.81 41.33 95.93 41.23C96.06 41.14 96.12 41 96.12 40.84C96.12 40.69 96.07 40.57 95.96 40.49C95.85 40.41 95.69 40.37 95.48 40.37L95.11 40.37L95.11 39.78L95.47 39.78C95.61 39.78 95.73 39.73 95.84 39.64C95.93 39.56 95.99 39.44 95.99 39.3C95.99 39.16 95.94 39.05 95.85 38.97C95.75 38.88 95.63 38.84 95.46 38.84C95.17 38.84 94.93 38.98 94.73 39.24L94.36 38.82C94.49 38.65 94.66 38.51 94.86 38.41C95.07 38.3 95.3 38.26 95.53 38.26C95.86 38.26 96.12 38.34 96.32 38.52C96.52 38.7 96.62 38.94 96.62 39.25C96.62 39.4 96.57 39.54 96.49 39.69C96.41 39.83 96.29 39.95 96.13 40.04L96.13 40.06C96.34 40.11 96.5 40.21 96.6 40.36C96.71 40.51 96.76 40.7 96.76 40.92C96.76 41.24 96.63 41.49 96.38 41.69C96.13 41.88 95.84 41.98 95.49 41.98L95.48 41.97Z" fill="#000000" fill-opacity="1.000000" fill-rule="nonzero"/>
        <path id="Vector" d="M116.51 41.09L116.75 41.57C116.64 41.69 116.48 41.78 116.27 41.86C116.06 41.94 115.83 41.97 115.6 41.97C115.05 41.97 114.61 41.8 114.26 41.46C113.92 41.12 113.75 40.67 113.75 40.11C113.75 39.55 113.91 39.13 114.24 38.78C114.56 38.43 115.01 38.26 115.59 38.26C116.05 38.26 116.42 38.38 116.69 38.62L116.41 39.09C116.16 38.93 115.89 38.84 115.59 38.84C115.25 38.84 114.97 38.96 114.75 39.19C114.53 39.42 114.42 39.73 114.42 40.11C114.42 40.49 114.53 40.79 114.76 41.02C114.99 41.25 115.29 41.37 115.66 41.37C115.98 41.37 116.26 41.27 116.52 41.08L116.51 41.09Z" fill="#000000" fill-opacity="1.000000" fill-rule="nonzero"/>
        <path id="Vector" d="M119.44 38.91L118.27 38.91L118.27 38.31L121.24 38.31L121.24 38.91L120.07 38.91L120.07 41.91L119.44 41.91L119.44 38.91Z" fill="#000000" fill-opacity="1.000000" fill-rule="nonzero"/>
        <path id="Vector" d="M124.21 40.37L123.77 40.37L123.77 41.32C123.93 41.33 124.06 41.35 124.19 41.35C124.63 41.35 124.85 41.17 124.85 40.83C124.85 40.68 124.79 40.56 124.68 40.49C124.57 40.41 124.42 40.37 124.22 40.37L124.21 40.37ZM124.17 38.89C124.02 38.89 123.88 38.9 123.77 38.91L123.77 39.82L124.2 39.82C124.36 39.82 124.49 39.78 124.59 39.69C124.69 39.61 124.74 39.49 124.74 39.34C124.74 39.2 124.69 39.09 124.59 39.01C124.49 38.93 124.35 38.89 124.17 38.89ZM123.14 41.92L123.14 38.33C123.51 38.32 123.86 38.3 124.18 38.3C124.58 38.3 124.87 38.38 125.07 38.54C125.27 38.7 125.36 38.92 125.36 39.2C125.36 39.58 125.19 39.86 124.85 40.01L124.85 40.02C125.05 40.07 125.2 40.17 125.32 40.32C125.43 40.46 125.49 40.64 125.49 40.86C125.49 41.21 125.36 41.48 125.13 41.67C124.89 41.85 124.56 41.95 124.15 41.95C123.73 41.95 123.4 41.94 123.14 41.92L123.14 41.92Z" fill="#000000" fill-opacity="1.000000" fill-rule="nonzero"/>
        <path id="Vector" d="M129.78 41.91L127.65 41.91L127.65 38.31L129.73 38.31L129.73 38.91L128.28 38.91L128.28 39.8L129.57 39.8L129.57 40.39L128.28 40.39L128.28 41.32L129.78 41.32L129.78 41.91Z" fill="#000000" fill-opacity="1.000000" fill-rule="nonzero"/>
        <path id="Vector" d="M134.85 41.91L134.22 41.91L134.22 40.38L132.58 40.38L132.58 41.91L131.94 41.91L131.94 38.31L132.58 38.31L132.58 39.78L134.22 39.78L134.22 38.31L134.85 38.31L134.85 41.91Z" fill="#000000" fill-opacity="1.000000" fill-rule="nonzero"/>
        <path id="Vector" d="M140.1 41.91L139.47 41.91L139.47 40.38L137.82 40.38L137.82 41.91L137.19 41.91L137.19 38.31L137.82 38.31L137.82 39.78L139.47 39.78L139.47 38.31L140.1 38.31L140.1 41.91Z" fill="#000000" fill-opacity="1.000000" fill-rule="nonzero"/>
        <path id="Vector" d="M144.28 40.4L143.75 39.12L143.22 40.4L144.28 40.4ZM142.61 41.92L141.97 41.92L143.5 38.3L144.05 38.3L145.57 41.92L144.9 41.92L144.53 41L142.98 41L142.61 41.92Z" fill="#000000" fill-opacity="1.000000" fill-rule="nonzero"/>
        <path id="Vector" d="M148.5 40.08L149.08 40.08L149.08 38.91C148.9 38.89 148.77 38.89 148.68 38.89C148.48 38.89 148.31 38.95 148.19 39.06C148.06 39.17 148 39.32 148 39.5C148 39.65 148.05 39.78 148.14 39.88C148.24 39.98 148.36 40.05 148.51 40.08L148.5 40.08ZM149.71 41.92L149.09 41.92L149.09 40.67L148.57 40.67L147.76 41.92L147.05 41.92L147.97 40.55C147.78 40.45 147.62 40.32 147.5 40.14C147.39 39.97 147.33 39.78 147.33 39.55C147.33 39.19 147.46 38.89 147.7 38.66C147.95 38.42 148.32 38.3 148.82 38.3C148.82 38.3 148.98 38.3 149.27 38.32C149.42 38.32 149.57 38.32 149.71 38.32L149.71 41.92L149.71 41.92Z" fill="#000000" fill-opacity="1.000000" fill-rule="nonzero"/>
        <path id="Vector" d="M155.11 41.91L154.47 41.91L154.47 38.31L155.11 38.31L155.11 40.02L156.52 38.31L157.29 38.31L155.81 39.99L157.38 41.91L156.58 41.91L155.11 40.06L155.11 41.91Z" fill="#000000" fill-opacity="1.000000" fill-rule="nonzero"/>
        <path id="Vector" d="M159.47 40.11C159.47 40.48 159.59 40.78 159.81 41.02C160.04 41.26 160.33 41.37 160.67 41.37C161.04 41.37 161.34 41.25 161.55 41.02C161.77 40.77 161.88 40.48 161.88 40.11C161.88 39.75 161.77 39.44 161.53 39.2C161.3 38.96 161.01 38.84 160.67 38.84C160.33 38.84 160.04 38.96 159.81 39.2C159.58 39.43 159.47 39.74 159.47 40.11L159.47 40.11ZM158.8 40.11C158.8 39.58 158.98 39.14 159.32 38.79C159.68 38.43 160.13 38.26 160.67 38.26C161.22 38.26 161.66 38.43 162.02 38.77C162.37 39.12 162.55 39.57 162.55 40.12C162.55 40.67 162.37 41.1 162.02 41.45C161.66 41.8 161.21 41.97 160.67 41.97C160.13 41.97 159.68 41.8 159.33 41.46C158.98 41.12 158.8 40.67 158.8 40.12L158.8 40.11Z" fill="#000000" fill-opacity="1.000000" fill-rule="nonzero"/>
        <path id="Vector" d="M165.26 41.91L164.62 41.91L164.62 38.31L165.26 38.31L166.49 40L167.66 38.31L168.26 38.31L168.26 41.91L167.64 41.91L167.64 39.31L166.5 40.91L166.4 40.91L165.26 39.32L165.26 41.91Z" fill="#000000" fill-opacity="1.000000" fill-rule="nonzero"/>
        <path id="Vector" d="M173.47 41.91L172.84 41.91L172.84 38.91L171.23 38.91L171.23 41.91L170.6 41.91L170.6 38.31L173.47 38.31L173.47 41.91Z" fill="#000000" fill-opacity="1.000000" fill-rule="nonzero"/>
        <path id="Vector" d="M177.66 40.4L177.13 39.12L176.6 40.4L177.66 40.4ZM175.99 41.92L175.35 41.92L176.87 38.3L177.43 38.3L178.95 41.92L178.28 41.92L177.9 41L176.36 41L175.99 41.92Z" fill="#000000" fill-opacity="1.000000" fill-rule="nonzero"/>
        <path id="Vector" d="M183.74 41.91L183.11 41.91L183.11 40.38L181.46 40.38L181.46 41.91L180.83 41.91L180.83 38.31L181.46 38.31L181.46 39.78L183.11 39.78L183.11 38.31L183.74 38.31L183.74 41.91Z" fill="#000000" fill-opacity="1.000000" fill-rule="nonzero"/>
        <path id="Vector" d="M192.54 40.08L193.11 40.08L193.11 38.91C192.94 38.89 192.81 38.89 192.72 38.89C192.51 38.89 192.34 38.95 192.22 39.06C192.1 39.17 192.04 39.32 192.04 39.5C192.04 39.65 192.08 39.78 192.18 39.88C192.27 39.98 192.39 40.05 192.54 40.08L192.54 40.08ZM193.75 41.92L193.12 41.92L193.12 40.67L192.6 40.67L191.79 41.92L191.08 41.92L192 40.55C191.81 40.45 191.65 40.32 191.54 40.14C191.43 39.97 191.37 39.78 191.37 39.55C191.37 39.19 191.5 38.89 191.74 38.66C191.99 38.42 192.36 38.3 192.86 38.3C192.86 38.3 193.02 38.3 193.31 38.32C193.46 38.32 193.61 38.32 193.75 38.32L193.75 41.92Z" fill="#000000" fill-opacity="1.000000" fill-rule="nonzero"/>
        <path id="Vector" d="M188.51 39.36L186.63 41.91L186.07 41.91L186.07 38.31L186.7 38.31L186.7 40.87L188.59 38.31L189.15 38.31L189.15 41.91L188.51 41.91L188.51 39.36Z" fill="#000000" fill-opacity="1.000000" fill-rule="nonzero"/>
    </g>
</svg>
