<svg width="62.363037" height="88.447510" viewBox="0 0 62.363 88.4475" fill="none" xmlns="http://www.w3.org/2000/svg" xmlns:xlink="http://www.w3.org/1999/xlink">
    <desc>
        Created with Pixso.
    </desc>
    <defs/>
    <path id="Vector" d="M31.18 0C13.99 0 0 13.98 0 31.17C0 44.26 8.11 55.49 19.58 60.1L13.17 82.54C12.76 83.97 14.31 85.16 15.58 84.41L22.75 80.18L26.61 87.56C27.3 88.88 29.24 88.67 29.65 87.25L33.48 73.85L36.59 84.76C37 86.18 38.94 86.39 39.63 85.06L43.49 77.67L50.65 81.91C51.93 82.67 53.48 81.47 53.07 80.05L46.8 58.13C56.09 52.73 62.36 42.67 62.36 31.17C62.36 13.98 48.37 0 31.18 0ZM28 86.2L24.3 79.1C23.87 78.27 22.82 77.97 22.01 78.45L15.12 82.52L21.33 60.76C24.27 61.74 27.79 62.35 31.18 62.35C32.43 62.35 33.93 62.24 34.89 62.13L28 86.2ZM45.12 59.06L51.12 80.02L44.24 75.94C43.43 75.47 42.38 75.76 41.94 76.6L38.24 83.7L34.45 70.46L36.92 61.81C39.62 61.32 42.64 60.31 45.12 59.06ZM31.18 60.48C15.12 60.48 1.86 47.43 1.86 31.17C1.86 15.01 15.02 1.86 31.18 1.86C47.34 1.86 60.49 15.01 60.49 31.17C60.49 47.39 47.28 60.48 31.18 60.48Z" fill="#000000" fill-opacity="1.000000" fill-rule="nonzero"/>
    <path id="Vector" d="M31.18 13.8C21.6 13.8 13.8 21.59 13.8 31.17C13.8 40.75 21.6 48.54 31.18 48.54C40.76 48.54 48.55 40.75 48.55 31.17C48.55 21.59 40.76 13.8 31.18 13.8ZM31.18 46.67C22.63 46.67 15.67 39.72 15.67 31.17C15.67 22.62 22.63 15.67 31.18 15.67C39.73 15.67 46.68 22.62 46.68 31.17C46.68 39.72 39.73 46.67 31.18 46.67Z" fill="#000000" fill-opacity="1.000000" fill-rule="nonzero"/>
</svg>
