<svg width="69.707275" height="62.174316" viewBox="0 0 69.7073 62.1743" fill="none" xmlns="http://www.w3.org/2000/svg" xmlns:xlink="http://www.w3.org/1999/xlink">
    <desc>
        Created with Pixso.
    </desc>
    <defs/>
    <path id="Vector" d="M62.18 37.21L62.18 6.49C62.18 2.91 59.26 0 55.68 0L22.74 0C19.16 0 16.25 2.91 16.25 6.49L16.25 37.56L11.48 39.88L10.54 37.95C9.9 36.65 8.32 36.11 7.02 36.74L1.47 39.45C0.17 40.09 -0.37 41.67 0.26 42.97L8.92 60.7C9.55 61.99 11.12 62.54 12.43 61.9L17.99 59.19C19.29 58.56 19.83 56.98 19.19 55.68L18.14 53.52C18.97 53.24 19.84 53.14 20.71 53.21C22.88 53.39 24.77 54.64 25.79 56.4C28.25 60.62 32.24 60.17 33.61 60.62C37.98 61.38 42.54 60.83 46.76 58.77L65.4 49.67C66.23 49.26 66.63 48.28 66.19 47.36C65.81 46.6 65.31 45.91 64.71 45.35L68.74 43.39C69.58 42.97 69.95 41.97 69.53 41.09C68.16 38.3 65.18 36.77 62.18 37.21ZM43.31 1.45L43.31 7.8C43.31 8.01 43.23 8.21 43.08 8.36C42.93 8.51 42.73 8.59 42.53 8.59L35.9 8.59C35.46 8.59 35.11 8.25 35.11 7.8L35.11 1.45L43.31 1.45ZM22.74 1.45L33.66 1.45L33.66 7.8C33.66 9.04 34.67 10.04 35.9 10.04L42.53 10.04C43.76 10.04 44.76 9.04 44.76 7.8L44.76 1.45L55.68 1.45C58.46 1.45 60.73 3.71 60.73 6.49L60.73 39.44C60.73 42.22 58.46 44.48 55.68 44.48C49.21 44.34 50.18 44.76 42.09 44.17L35.14 43.62L33.32 39.88C31.01 35.14 25.27 33.15 20.5 35.48L17.7 36.84L17.7 6.49C17.7 3.71 19.96 1.45 22.74 1.45ZM17.35 57.89L11.79 60.6C11.22 60.88 10.51 60.64 10.22 60.06L1.57 42.33C1.29 41.76 1.52 41.04 2.11 40.76L7.66 38.05C8.24 37.76 8.95 38 9.23 38.59L17.89 56.31C18.17 56.9 17.93 57.6 17.35 57.89ZM64.88 48C64.96 48.15 64.9 48.3 64.77 48.36L46.13 57.46C42.3 59.33 38.06 59.93 33.86 59.19C32.69 58.81 29.06 59.12 27.05 55.66C25.8 53.53 23.48 51.97 20.77 51.76C19.76 51.69 18.75 51.75 17.5 52.19L12.13 41.18L21.13 36.79C25.2 34.83 30.05 36.49 32.02 40.53L34.01 44.63C34.07 44.74 34.15 44.84 34.26 44.91C34.36 44.98 34.48 45.02 34.61 45.03L41.97 45.62C44.51 45.83 46.55 47.91 46.65 50.51L46.69 51.74L33.83 50.57C33.43 50.53 33.07 50.82 33.04 51.22C33.02 51.41 33.08 51.6 33.2 51.75C33.33 51.9 33.5 51.99 33.69 52.01L47.38 53.27C47.77 53.3 47.4 53.3 63.27 46.04C63.95 46.56 64.51 47.23 64.88 48ZM68.1 42.08L63.03 44.56L48.13 51.43L48.1 50.46C48.04 48.81 47.37 47.31 46.3 46.19L46.82 45.93L55.68 45.93C59.26 45.93 62.18 43.02 62.18 39.44L62.18 38.67C64.63 38.23 67.11 39.45 68.22 41.72C68.29 41.87 68.23 42.02 68.1 42.08Z" fill="#000000" fill-opacity="1.000000" fill-rule="nonzero"/>
</svg>
