<svg width="54.393311" height="69.706787" viewBox="0 0 54.3933 69.7068" fill="none" xmlns="http://www.w3.org/2000/svg" xmlns:xlink="http://www.w3.org/1999/xlink">
    <desc>
        Created with Pixso.
    </desc>
    <defs/>
    <path id="Vector" d="M0 58.65L0 61.29C0 63.53 1.82 65.35 4.05 65.35L5.57 65.35L5.57 67.13C5.57 68.55 6.73 69.7 8.15 69.7L12.15 69.7C13.57 69.7 14.73 68.55 14.73 67.13L14.73 65.35L39.66 65.35L39.66 67.13C39.66 68.55 40.81 69.7 42.23 69.7L46.24 69.7C47.66 69.7 48.81 68.55 48.81 67.13L48.81 65.35L50.33 65.35C52.57 65.35 54.39 63.53 54.39 61.29L54.39 58.65C54.39 56.41 52.57 54.59 50.33 54.59L41.44 54.59C42.19 53.77 42.66 52.69 42.66 51.49L42.66 29.65C42.66 27.14 40.62 25.1 38.11 25.1L30 25.1L30 20.19C34.31 18.96 37.49 15 37.49 10.29C37.49 4.62 32.87 0 27.19 0C21.52 0 16.9 4.62 16.9 10.29C16.9 14.99 20.07 18.96 24.38 20.19L24.38 25.1L16.27 25.1C13.76 25.1 11.72 27.14 11.72 29.65L11.72 51.49C11.72 52.69 12.19 53.77 12.95 54.59L4.05 54.59C1.82 54.59 0 56.41 0 58.65ZM12.15 68.25L8.15 68.25C7.53 68.25 7.02 67.75 7.02 67.13L7.02 65.35L13.27 65.35C13.15 66.04 13.76 68.25 12.15 68.25ZM47.36 67.13C47.36 67.75 46.86 68.25 46.24 68.25L42.23 68.25C41.61 68.25 41.11 67.75 41.11 67.13L41.11 65.35L47.36 65.35L47.36 67.13L47.36 67.13ZM52.94 58.65L52.94 61.29C52.94 62.73 51.77 63.9 50.33 63.9L4.05 63.9C2.62 63.9 1.45 62.73 1.45 61.29L1.45 58.65C1.45 57.21 2.62 56.04 4.05 56.04L50.33 56.04C51.77 56.04 52.94 57.21 52.94 58.65ZM24.72 26.55C27.07 26.55 29.84 26.55 29.67 26.55L29.67 30.52C29.67 30.59 29.64 30.66 29.58 30.72C29.53 30.77 29.46 30.8 29.39 30.8L25 30.8C24.96 30.8 24.92 30.79 24.89 30.78C24.86 30.76 24.83 30.74 24.8 30.72C24.77 30.69 24.75 30.66 24.74 30.63C24.73 30.59 24.72 30.56 24.72 30.52L24.72 26.55ZM18.35 10.29C18.35 5.42 22.32 1.45 27.19 1.45C32.07 1.45 36.04 5.42 36.04 10.29C36.04 15.99 30.71 20.14 25.3 18.92C21.33 18.05 18.35 14.52 18.35 10.29ZM25.84 20.5C27.04 20.66 27.75 20.56 28.55 20.5L28.55 25.1L25.84 25.1L25.84 20.5ZM13.17 51.49L13.17 29.65C13.17 27.94 14.56 26.55 16.27 26.55L23.27 26.55L23.27 30.52C23.27 31.47 24.04 32.25 25 32.25L29.39 32.25C30.34 32.25 31.12 31.47 31.12 30.52L31.12 26.55L38.11 26.55C39.82 26.55 41.21 27.94 41.21 29.65L41.21 51.49C41.21 53.2 39.82 54.59 38.11 54.59L16.27 54.59C14.56 54.59 13.17 53.2 13.17 51.49Z" fill="#000000" fill-opacity="1.000000" fill-rule="nonzero"/>
    <path id="Vector" d="M37.18 49.8L32 49.8C31.59 49.8 31.27 50.12 31.27 50.52C31.27 50.92 31.59 51.25 32 51.25L37.18 51.25C37.58 51.25 37.9 50.92 37.9 50.52C37.9 50.12 37.58 49.8 37.18 49.8ZM27.19 12.74C28.54 12.74 29.64 11.64 29.64 10.29C29.64 9.2 28.91 8.28 27.92 7.97L27.92 3.49C27.92 3.09 27.59 2.76 27.19 2.76C26.79 2.76 26.47 3.09 26.47 3.49L26.47 7.97C25.47 8.28 24.75 9.2 24.75 10.29C24.75 11.64 25.84 12.74 27.19 12.74ZM27.19 9.3C27.74 9.3 28.18 9.74 28.18 10.29C28.18 10.84 27.74 11.28 27.19 11.28C26.64 11.28 26.2 10.84 26.2 10.29C26.2 9.74 26.64 9.3 27.19 9.3Z" fill="#000000" fill-opacity="1.000000" fill-rule="nonzero"/>
</svg>
