<svg width="69.721680" height="69.721680" viewBox="0 0 69.7217 69.7217" fill="none" xmlns="http://www.w3.org/2000/svg" xmlns:xlink="http://www.w3.org/1999/xlink">
    <desc>
        Created with Pixso.
    </desc>
    <defs/>
    <path id="Vector" d="M34.85 0C15.63 0 0 15.64 0 34.86C0 54.08 15.63 69.72 34.85 69.72C54.08 69.72 69.72 54.08 69.72 34.86C69.72 15.64 54.08 0 34.85 0ZM34.85 68.26C16.43 68.26 1.45 53.28 1.45 34.86C1.45 16.44 16.43 1.45 34.85 1.45C53.28 1.45 68.26 16.44 68.26 34.86C68.26 53.28 53.28 68.26 34.85 68.26Z" fill="#000000" fill-opacity="1.000000" fill-rule="nonzero"/>
    <path id="Vector" d="M34.85 9.49C20.87 9.49 9.49 20.87 9.49 34.86C9.49 48.85 20.87 60.23 34.85 60.23C48.84 60.23 60.23 48.85 60.23 34.86C60.23 20.87 48.84 9.49 34.85 9.49ZM34.85 58.77C21.67 58.77 10.94 48.05 10.94 34.86C10.94 21.67 21.67 10.94 34.85 10.94C48.04 10.94 58.77 21.67 58.77 34.86C58.77 48.05 48.04 58.77 34.85 58.77Z" fill="#000000" fill-opacity="1.000000" fill-rule="nonzero"/>
    <path id="Vector" d="M45.94 23.17C44.13 21.81 41.57 22.16 40.21 23.97L30.6 36.73L29.35 35.27C27.89 33.56 25.3 33.35 23.58 34.81C21.86 36.28 21.66 38.86 23.12 40.58L27.68 45.93C29.38 47.92 32.49 47.83 34.06 45.74L46.74 28.9C48.1 27.09 47.74 24.52 45.94 23.17ZM45.58 28.02L32.9 44.86C31.88 46.22 29.88 46.27 28.79 44.99L24.23 39.64C23.28 38.53 23.41 36.86 24.53 35.92C25.64 34.97 27.31 35.11 28.25 36.22L30.08 38.37C30.4 38.74 30.95 38.69 31.21 38.33L41.37 24.85C42.24 23.68 43.9 23.45 45.06 24.33C46.23 25.2 46.46 26.86 45.58 28.02Z" fill="#000000" fill-opacity="1.000000" fill-rule="nonzero"/>
</svg>
