<svg width="68.154297" height="69.545166" viewBox="0 0 68.1543 69.5452" fill="none" xmlns="http://www.w3.org/2000/svg" xmlns:xlink="http://www.w3.org/1999/xlink">
    <desc>
        Created with Pixso.
    </desc>
    <defs/>
    <path id="Vector" d="M10.42 23.38L13.93 23.38C14.33 23.38 14.65 23.06 14.65 22.66C14.65 22.26 14.33 21.94 13.93 21.94L10.42 21.94C10.23 21.94 10.05 22.02 9.91 22.15C9.78 22.29 9.71 22.47 9.71 22.66C9.71 22.85 9.78 23.03 9.91 23.17C10.05 23.3 10.23 23.38 10.42 23.38ZM17.11 23.38L20.62 23.38C21.02 23.38 21.35 23.06 21.35 22.66C21.35 22.26 21.02 21.94 20.62 21.94L17.11 21.94C16.92 21.94 16.74 22.02 16.61 22.15C16.47 22.29 16.4 22.47 16.4 22.66C16.4 22.85 16.47 23.03 16.61 23.17C16.74 23.3 16.92 23.38 17.11 23.38ZM23.8 23.38L27.32 23.38C27.72 23.38 28.04 23.06 28.04 22.66C28.04 22.26 27.72 21.94 27.32 21.94L23.8 21.94C23.61 21.94 23.43 22.02 23.3 22.15C23.17 22.29 23.09 22.47 23.09 22.66C23.09 22.85 23.17 23.03 23.3 23.17C23.43 23.3 23.61 23.38 23.8 23.38ZM30.5 23.38L34.01 23.38C34.41 23.38 34.74 23.06 34.74 22.66C34.74 22.26 34.41 21.94 34.01 21.94L30.5 21.94C30.31 21.94 30.13 22.02 29.99 22.15C29.86 22.29 29.79 22.47 29.79 22.66C29.79 22.85 29.86 23.03 29.99 23.17C30.13 23.3 30.31 23.38 30.5 23.38Z" fill="#000000" fill-opacity="1.000000" fill-rule="nonzero"/>
    <path id="Vector" d="M68.15 61.63L68.15 34.43C68.15 32.04 67.08 29.9 65.4 28.45L65.4 7.08C65.4 3.17 62.22 0 58.32 0L12.67 0C8.76 0 5.58 3.17 5.58 7.08C5.58 7.27 5.58 19.87 5.58 26.87C2.35 27.86 0 30.87 0 34.43L0 61.63C0 65.99 3.54 69.54 7.9 69.54L60.23 69.54C64.6 69.54 68.15 65.99 68.15 61.63ZM12.67 1.44L58.32 1.44C61.23 1.44 63.64 3.67 63.92 6.52L7.06 6.52C7.34 3.67 9.75 1.44 12.67 1.44ZM7.03 7.97L63.95 7.97L63.95 15.65L7.03 15.65L7.03 7.97ZM7.03 17.1L63.95 17.1L63.95 27.44C62.83 26.84 61.4 26.51 60.23 26.51C49.03 26.52 7.8 26.48 7.03 26.56L7.03 17.1ZM60.23 68.09L7.9 68.09C4.34 68.09 1.44 65.19 1.44 61.63L1.44 34.43C1.44 31.32 3.65 28.72 6.57 28.11C8.26 27.76 7.53 28.09 60.23 27.97C63.8 27.97 66.7 30.87 66.7 34.43L66.7 61.63C66.7 65.19 63.8 68.09 60.23 68.09Z" fill="#000000" fill-opacity="1.000000" fill-rule="nonzero"/>
    <path id="Vector" d="M61.78 36.09C60.13 35.89 58.78 34.54 58.57 32.89C58.49 32.22 57.91 31.71 57.23 31.71L10.91 31.71C10.22 31.71 9.64 32.22 9.56 32.89C9.46 33.71 9.09 34.46 8.51 35.04C7.93 35.62 7.18 35.99 6.37 36.09C5.69 36.17 5.19 36.75 5.19 37.43L5.19 58.62C5.19 59.31 5.69 59.89 6.37 59.97C7.18 60.07 7.93 60.44 8.51 61.02C9.09 61.6 9.46 62.35 9.56 63.16C9.64 63.84 10.22 64.34 10.91 64.34L57.23 64.34C57.92 64.34 58.5 63.84 58.58 63.16C58.79 61.49 60.1 60.18 61.78 59.97C62.45 59.89 62.96 59.31 62.96 58.62L62.96 37.44C62.96 36.76 62.45 36.18 61.78 36.09ZM61.51 58.55C59.25 58.87 57.47 60.64 57.16 62.9L10.98 62.9C10.83 61.8 10.32 60.78 9.54 59.99C8.75 59.21 7.73 58.7 6.64 58.55L6.64 37.51C7.73 37.36 8.75 36.85 9.54 36.06C10.32 35.28 10.83 34.26 10.98 33.16L57.15 33.16C57.47 35.42 59.25 37.2 61.51 37.52L61.51 58.55L61.51 58.55Z" fill="#000000" fill-opacity="1.000000" fill-rule="nonzero"/>
    <path id="Vector" d="M34.07 36.86C27.91 36.86 22.9 41.87 22.9 48.03C22.9 54.19 27.91 59.19 34.07 59.19C40.23 59.19 45.24 54.19 45.24 48.03C45.24 41.87 40.23 36.86 34.07 36.86ZM34.07 57.74C28.71 57.74 24.35 53.39 24.35 48.03C24.35 42.67 28.71 38.31 34.07 38.31C39.43 38.31 43.79 42.67 43.79 48.03C43.79 53.39 39.43 57.74 34.07 57.74ZM15.82 44.09C13.65 44.09 11.88 45.86 11.88 48.03C11.88 50.2 13.65 51.97 15.82 51.97C17.99 51.97 19.76 50.2 19.76 48.03C19.76 45.86 17.99 44.09 15.82 44.09ZM15.82 50.52C14.45 50.52 13.33 49.4 13.33 48.03C13.33 46.66 14.45 45.54 15.82 45.54C17.19 45.54 18.31 46.66 18.31 48.03C18.31 49.4 17.19 50.52 15.82 50.52ZM52.33 44.09C50.16 44.09 48.39 45.86 48.39 48.03C48.39 50.2 50.16 51.97 52.33 51.97C54.5 51.97 56.26 50.2 56.26 48.03C56.26 45.86 54.5 44.09 52.33 44.09ZM52.33 50.52C50.95 50.52 49.84 49.4 49.84 48.03C49.84 46.66 50.95 45.54 52.33 45.54C53.7 45.54 54.81 46.66 54.81 48.03C54.81 49.4 53.7 50.52 52.33 50.52Z" fill="#000000" fill-opacity="1.000000" fill-rule="nonzero"/>
</svg>
