<svg width="245" height="63" viewBox="0 0 245 63" fill="none" xmlns="http://www.w3.org/2000/svg">
    <g clip-path="url(#clip0_208_478)">
        <path d="M71.5889 47.4582C82.0926 31.7915 77.8925 10.5023 62.2237 0L52.6642 14.2576C60.4673 19.4914 62.5639 30.0978 57.3294 37.9C52.095 45.7021 41.4872 47.7984 33.684 42.5646L24.1245 56.8222C39.7932 67.3245 61.0852 63.1249 71.5889 47.4582Z" fill="#30873E"/>
        <path d="M53.2751 6.21249C52.7544 5.86542 52.2198 5.53223 51.6714 5.21293C51.0327 4.8381 50.9633 4.80339 50.9633 4.80339C50.2829 4.44938 49.6165 4.41467 49.4846 4.72703C49.3457 5.0394 48.6654 5.04634 47.9642 4.73398L47.6726 4.60903C46.9715 4.30361 46.5133 3.78995 46.6591 3.47064C46.7979 3.15134 46.3258 2.67933 45.6038 2.4225L43.7017 1.81859C42.9658 1.61729 42.3063 1.7353 42.2438 2.08931C42.1813 2.44332 41.5079 2.6238 40.7581 2.48497L40.4527 2.42944C39.7029 2.29061 39.1406 1.88107 39.21 1.51317C39.2794 1.14528 38.7102 0.777387 37.9465 0.69409L35.9332 0.54138C35.1696 0.506673 34.5587 0.798211 34.5795 1.17999C34.6003 1.56176 33.9894 1.90883 33.2258 1.95048L32.9133 1.96436C32.1497 2.00601 31.511 1.71447 31.4902 1.31881C31.4694 0.923156 30.8307 0.673266 30.074 0.763504L28.0607 1.07587C27.3109 1.22164 26.7903 1.65894 26.9083 2.0546C27.0263 2.45026 26.5195 2.95004 25.7836 3.16522L25.4851 3.25546C24.7492 3.47064 24.055 3.31099 23.937 2.90145C23.819 2.49191 23.1317 2.37391 22.4166 2.63074L20.5006 3.40817C19.7994 3.72053 19.4106 4.28973 19.6328 4.67844C19.8549 5.06716 19.487 5.69189 18.8205 6.06672L18.5498 6.21943C17.8833 6.60121 17.1544 6.58038 16.9253 6.17778C16.6962 5.77518 15.9881 5.78907 15.3494 6.21249L13.6346 7.42723C13.0237 7.8923 12.7946 8.55868 13.1279 8.91269C13.4541 9.2667 13.2667 9.98166 12.7044 10.5023L12.4753 10.7174C11.913 11.2381 11.184 11.3699 10.8438 11.002C10.5037 10.6411 9.8025 10.7938 9.27489 11.3561L7.87255 12.9526C7.38659 13.5426 7.34493 14.2645 7.76841 14.5491C8.19883 14.8337 8.19883 15.5903 7.76841 16.222L7.59485 16.4857C7.17137 17.1243 6.46326 17.402 6.0259 17.1105C5.58854 16.8189 5.07481 16.8259 4.88736 17.1313L4.72075 17.4159C4.04735 18.5682 3.51279 19.6788 3.51279 19.6788C3.18651 20.366 3.33229 21.0879 3.84602 21.2822C4.35975 21.4697 4.56108 22.2124 4.29727 22.9343L4.18619 23.2258C3.92239 23.9408 3.26981 24.3711 2.7422 24.1698C2.21459 23.9755 1.60367 24.4128 1.38846 25.1486L0.840016 27.2588C0.673401 28.0084 1.01357 28.6748 1.58284 28.7442C2.15905 28.8136 2.54782 29.4939 2.45757 30.2505L2.41591 30.5629C2.31872 31.3195 1.77028 31.8817 1.18019 31.8123C0.597036 31.7429 0.0833074 32.3051 0.0416537 33.0687L0 35.2691C0.0138846 36.0327 0.513729 36.6019 1.11076 36.5394C1.7078 36.4769 2.26318 37.0392 2.34649 37.8027L2.3812 38.1151C2.46451 38.8786 2.04103 39.552 1.43705 39.6144C0.833074 39.6838 0.451248 40.3502 0.590094 41.0999L1.06911 43.2656C1.26349 44.0083 1.89524 44.4387 2.47145 44.2374C3.0546 44.0291 3.73495 44.4526 3.99181 45.1745L4.09595 45.473C4.35281 46.1949 4.08206 46.9515 3.49891 47.1597C2.90882 47.368 2.68666 48.1107 2.99212 48.8118L3.96404 50.8109C4.32504 51.4842 5.04704 51.7619 5.57465 51.4217C6.10226 51.0816 6.87286 51.3245 7.28939 51.9701L7.46295 52.2339C7.87949 52.8725 7.7823 53.6777 7.25468 54.0247C6.72707 54.3649 6.67153 55.1423 7.13666 55.7531L8.55983 57.4746C9.06662 58.0438 9.83721 58.141 10.2746 57.6828C10.7119 57.2247 11.5172 57.2872 12.0726 57.8147L12.3017 58.0299C12.8502 58.5575 12.9474 59.3627 12.5169 59.8139C12.0796 60.265 12.2115 61.0355 12.8016 61.5214C12.8016 61.5214 13.6902 62.2503 14.7523 62.9861L24.5201 48.9853C23.8884 48.5549 23.2983 48.0829 22.7429 47.5831C21.1323 46.1324 19.848 44.4179 18.9038 42.5506C16.363 37.4973 16.356 31.2986 19.4384 26.0648C22.4513 20.9352 27.7066 17.9365 33.2327 17.5894C36.5442 17.3812 39.9528 18.1239 43.0352 19.9356C43.2573 20.0675 43.4795 20.2063 43.7017 20.3451L53.2889 6.21249H53.2751Z" fill="white"/>
        <path d="M110.264 37.2823L111.84 40.3643C111.104 41.1417 110.049 41.7804 108.675 42.2732C107.3 42.766 105.856 43.009 104.336 43.009C100.76 43.009 97.8446 41.9053 95.5953 39.691C93.3599 37.4767 92.2422 34.5544 92.2422 30.9171C92.2422 27.2798 93.3044 24.5449 95.4287 22.2404C97.5253 19.9636 100.469 18.8252 104.238 18.8252C107.231 18.8252 109.612 19.6165 111.375 21.2061L109.535 24.2534C107.953 23.2052 106.182 22.6777 104.238 22.6777C102.003 22.6777 100.17 23.4273 98.7471 24.9197C97.317 26.4191 96.6019 28.4182 96.6019 30.9171C96.6019 33.416 97.3517 35.3596 98.8443 36.8797C100.365 38.3999 102.315 39.1565 104.711 39.1565C106.765 39.1565 108.619 38.5318 110.271 37.2823" fill="white"/>
        <path d="M120.615 23.0453H113.006V19.1929H132.341V23.0453H124.732V42.6409H120.615V23.0453Z" fill="white"/>
        <path d="M145.871 32.7911L142.456 24.4476L139.005 32.7911H145.871ZM134.986 42.6409H130.834L140.748 19.1235H144.365L154.278 42.6409H149.891L147.447 36.6436H137.429L134.986 42.6409Z" fill="white"/>
        <path d="M160.415 23.0453H152.807V19.1929H172.141V23.0453H164.532V42.6409H160.415V23.0453Z" fill="white"/>
        <path d="M191.635 25.9954L179.34 42.6409H175.723V19.1929H179.84V35.873L192.134 19.1929H195.758V42.6409H191.635V25.9954Z" fill="white"/>
        <path d="M206.373 42.6409H202.256V19.1929H206.373V30.313L215.62 19.1929H220.584L210.934 30.1117L221.181 42.6409H215.953L206.373 30.549V42.6409Z" fill="white"/>
        <path d="M236.593 32.7911L233.177 24.4476L229.727 32.7911H236.593ZM225.707 42.6409H221.556L231.469 19.1235H235.086L245 42.6409H240.612L238.169 36.6436H228.151L225.707 42.6409Z" fill="white"/>
        <path d="M105.863 50.5473C105.863 51.0054 106.009 51.3872 106.293 51.6856C106.585 51.9911 106.946 52.1368 107.376 52.1368C107.841 52.1368 108.216 51.9841 108.487 51.6856C108.765 51.3802 108.904 51.0054 108.904 50.5473C108.904 50.0891 108.758 49.7004 108.459 49.395C108.168 49.0965 107.807 48.9507 107.376 48.9507C106.946 48.9507 106.578 49.0965 106.286 49.395C106.002 49.6935 105.856 50.0752 105.856 50.5473M105.016 50.5473C105.016 49.8809 105.238 49.3256 105.675 48.8813C106.127 48.4301 106.689 48.208 107.376 48.208C108.064 48.208 108.626 48.4232 109.07 48.8605C109.521 49.2978 109.744 49.8601 109.744 50.5542C109.744 51.2483 109.521 51.7898 109.07 52.234C108.619 52.6713 108.057 52.8934 107.376 52.8934C106.696 52.8934 106.127 52.6783 105.682 52.2479C105.238 51.8175 105.016 51.2553 105.016 50.5542" fill="white"/>
        <path d="M101.1 49.0131L100.531 49.027V50.4222C100.76 50.4431 100.948 50.4569 101.093 50.4569C101.35 50.4569 101.552 50.3945 101.704 50.2695C101.857 50.1446 101.933 49.9641 101.933 49.7211C101.933 49.2491 101.656 49.0131 101.093 49.0131M100.524 51.1788V52.817H99.7258V48.2773C99.9133 48.2773 100.122 48.2773 100.344 48.2773C100.566 48.2773 100.795 48.2773 101.017 48.2773C101.336 48.2773 101.614 48.319 101.85 48.3953C102.086 48.4717 102.267 48.5828 102.399 48.7285C102.531 48.8674 102.628 49.0201 102.683 49.1867C102.746 49.3533 102.773 49.5337 102.773 49.735C102.773 50.1446 102.628 50.4986 102.336 50.7762C102.045 51.0608 101.642 51.2066 101.114 51.2066C100.85 51.2066 100.656 51.2066 100.524 51.1858" fill="white"/>
        <path d="M96.7892 52.817H95.9908V49.027H93.9637V52.817H93.1653V48.2773H96.7892V52.817Z" fill="white"/>
        <path d="M115.436 49.5962L113.055 52.817H112.354V48.2773H113.152V51.5051L115.533 48.2773H116.234V52.817H115.436V49.5962Z" fill="white"/>
        <path d="M126.023 50.8666H125.461V52.0674C125.662 52.0883 125.836 52.1022 125.988 52.1022C126.544 52.1022 126.822 51.88 126.822 51.4497C126.822 51.2622 126.752 51.1165 126.613 51.0193C126.474 50.9221 126.28 50.8735 126.03 50.8735M125.968 49.0132C125.773 49.0132 125.614 49.0202 125.468 49.0341V50.1794H126.002C126.204 50.1794 126.37 50.1239 126.495 50.0197C126.62 49.9156 126.683 49.7698 126.683 49.5755C126.683 49.395 126.62 49.2562 126.495 49.159C126.37 49.0618 126.197 49.0132 125.968 49.0132ZM124.669 52.8241V48.3052C125.135 48.2844 125.572 48.2705 125.982 48.2705C126.488 48.2705 126.856 48.3677 127.106 48.569C127.349 48.7703 127.474 49.041 127.474 49.395C127.474 49.8809 127.259 50.228 126.828 50.4223V50.4362C127.078 50.4987 127.273 50.6236 127.412 50.8041C127.55 50.9846 127.627 51.2137 127.627 51.4913C127.627 51.9356 127.474 52.2687 127.176 52.5048C126.87 52.7408 126.461 52.8588 125.94 52.8588C125.419 52.8588 124.996 52.8449 124.676 52.8241" fill="white"/>
        <path d="M130.855 50.5473C130.855 51.0054 131.001 51.3872 131.285 51.6856C131.577 51.9911 131.938 52.1368 132.368 52.1368C132.834 52.1368 133.208 51.9841 133.479 51.6856C133.757 51.3802 133.896 51.0054 133.896 50.5473C133.896 50.0891 133.75 49.7004 133.451 49.395C133.16 49.0965 132.799 48.9507 132.368 48.9507C131.938 48.9507 131.57 49.0965 131.278 49.395C130.994 49.6935 130.848 50.0752 130.848 50.5473M130.008 50.5473C130.008 49.8809 130.23 49.3256 130.668 48.8813C131.119 48.4301 131.681 48.208 132.368 48.208C133.056 48.208 133.618 48.4232 134.062 48.8605C134.514 49.2978 134.736 49.8601 134.736 50.5542C134.736 51.2483 134.514 51.7898 134.062 52.234C133.611 52.6713 133.049 52.8934 132.368 52.8934C131.688 52.8934 131.119 52.6783 130.675 52.2479C130.23 51.8175 130.008 51.2553 130.008 50.5542" fill="white"/>
        <path d="M138.63 49.027L138.554 49.8183C138.519 50.3667 138.436 50.8387 138.311 51.2552C138.186 51.6856 138.075 51.9563 137.978 52.0812H139.873V49.034H138.623L138.63 49.027ZM137.374 53.6292H136.624V52.0743H137.11C137.242 51.9216 137.381 51.5884 137.533 51.0678C137.693 50.5402 137.783 49.9086 137.811 49.1867L137.853 48.2773H140.664V52.0743H141.282V53.6292H140.533V52.817H137.36V53.6292H137.374Z" fill="white"/>
        <path d="M120.33 52.8865C119.976 52.8865 119.671 52.8171 119.4 52.6713C119.129 52.5255 118.921 52.3451 118.775 52.1229L119.213 51.5815C119.359 51.7481 119.525 51.88 119.726 51.9841C119.928 52.0882 120.115 52.1368 120.296 52.1368C120.546 52.1368 120.747 52.0813 120.9 51.9564C121.059 51.8384 121.136 51.6718 121.136 51.4635C121.136 51.2761 121.066 51.1303 120.928 51.0262C120.789 50.9221 120.587 50.8666 120.33 50.8666H119.865V50.1238H120.31C120.49 50.1238 120.643 50.0683 120.775 49.9572C120.9 49.8462 120.969 49.7004 120.969 49.5269C120.969 49.3533 120.907 49.2076 120.789 49.1034C120.671 48.9993 120.511 48.9507 120.303 48.9507C119.935 48.9507 119.629 49.1173 119.379 49.4436L118.921 48.916C119.074 48.7008 119.289 48.5343 119.546 48.4024C119.81 48.2705 120.094 48.208 120.393 48.208C120.809 48.208 121.136 48.3191 121.386 48.5412C121.636 48.7633 121.761 49.0687 121.761 49.4575C121.761 49.6518 121.705 49.8323 121.601 50.0128C121.497 50.1932 121.344 50.339 121.15 50.457V50.4778C121.407 50.5403 121.608 50.6722 121.74 50.8596C121.872 51.047 121.934 51.283 121.934 51.5607C121.934 51.9633 121.774 52.2895 121.462 52.5325C121.15 52.7754 120.775 52.9004 120.344 52.9004" fill="white"/>
        <path d="M146.829 51.7828L147.135 52.3798C146.996 52.5325 146.788 52.6505 146.524 52.7477C146.26 52.8449 145.975 52.8865 145.684 52.8865C144.99 52.8865 144.427 52.6713 143.99 52.2479C143.559 51.8175 143.344 51.2553 143.344 50.5473C143.344 49.8392 143.553 49.3117 143.962 48.8674C144.365 48.4301 144.934 48.208 145.67 48.208C146.253 48.208 146.711 48.3607 147.051 48.6661L146.697 49.2562C146.392 49.0549 146.052 48.9507 145.67 48.9507C145.239 48.9507 144.885 49.0965 144.608 49.3811C144.33 49.6726 144.191 50.0614 144.191 50.5403C144.191 51.0193 144.337 51.401 144.622 51.6926C144.913 51.9841 145.295 52.1299 145.76 52.1299C146.156 52.1299 146.517 52.0119 146.836 51.7689" fill="white"/>
        <path d="M150.522 49.027H149.044V48.2773H152.786V49.027H151.314V52.817H150.522V49.027Z" fill="white"/>
        <path d="M156.534 50.8666H155.972V52.0674C156.173 52.0883 156.347 52.1022 156.5 52.1022C157.055 52.1022 157.333 51.88 157.333 51.4497C157.333 51.2622 157.263 51.1165 157.124 51.0193C156.986 50.9221 156.791 50.8735 156.541 50.8735M156.479 49.0132C156.284 49.0132 156.118 49.0202 155.979 49.0341V50.1794H156.514C156.715 50.1794 156.882 50.1239 157.006 50.0197C157.131 49.9156 157.194 49.7698 157.194 49.5755C157.194 49.395 157.131 49.2562 157.006 49.159C156.882 49.0618 156.708 49.0132 156.479 49.0132ZM155.181 52.8241V48.3052C155.646 48.2844 156.083 48.2705 156.493 48.2705C157 48.2705 157.367 48.3677 157.617 48.569C157.86 48.7703 157.985 49.041 157.985 49.395C157.985 49.8809 157.77 50.228 157.34 50.4223V50.4362C157.59 50.4987 157.784 50.6236 157.923 50.8041C158.062 50.9846 158.138 51.2137 158.138 51.4913C158.138 51.9356 157.985 52.2687 157.687 52.5048C157.381 52.7408 156.972 52.8588 156.451 52.8588C155.93 52.8588 155.507 52.8449 155.188 52.8241" fill="white"/>
        <path d="M163.553 52.817H160.86V48.2773H163.484V49.027H161.658V50.1515H163.289V50.8942H161.658V52.0743H163.553V52.817Z" fill="white"/>
        <path d="M169.94 52.817H169.149V50.8804H167.073V52.817H166.274V48.2773H167.073V50.1307H169.149V48.2773H169.94V52.817Z" fill="white"/>
        <path d="M176.549 52.817H175.758V50.8804H173.682V52.817H172.884V48.2773H173.682V50.1307H175.758V48.2773H176.549V52.817Z" fill="white"/>
        <path d="M181.818 50.9152L181.159 49.2978L180.492 50.9152H181.818ZM179.715 52.8241H178.909L180.832 48.2705H181.534L183.45 52.8241H182.603L182.131 51.6648H180.187L179.715 52.8241Z" fill="white"/>
        <path d="M187.143 50.5056H187.872V49.0271C187.65 49.0132 187.483 49.0063 187.372 49.0063C187.115 49.0063 186.9 49.0827 186.747 49.2215C186.588 49.3603 186.511 49.5477 186.511 49.7768C186.511 49.9642 186.574 50.1239 186.692 50.2557C186.81 50.3807 186.963 50.464 187.15 50.5056M188.67 52.8241H187.879V51.2553H187.226L186.206 52.8241H185.31L186.47 51.0957C186.227 50.9776 186.032 50.8041 185.887 50.5889C185.741 50.3737 185.664 50.1239 185.664 49.8393C185.664 49.3881 185.824 49.0132 186.136 48.7148C186.449 48.4163 186.914 48.2705 187.539 48.2705C187.546 48.2705 187.74 48.2705 188.108 48.2844C188.295 48.2844 188.483 48.2844 188.663 48.2844V52.8241H188.67Z" fill="white"/>
        <path d="M195.467 52.817H194.662V48.2773H195.467V50.4292L197.251 48.2773H198.216L196.349 50.3945L198.327 52.817H197.321L195.467 50.4778V52.817Z" fill="white"/>
        <path d="M200.965 50.5473C200.965 51.0054 201.111 51.3872 201.396 51.6856C201.687 51.9911 202.048 52.1368 202.479 52.1368C202.944 52.1368 203.319 51.9841 203.589 51.6856C203.867 51.3802 204.006 51.0054 204.006 50.5473C204.006 50.0891 203.86 49.7004 203.562 49.395C203.27 49.0965 202.909 48.9507 202.479 48.9507C202.048 48.9507 201.68 49.0965 201.389 49.395C201.104 49.6935 200.958 50.0752 200.958 50.5473M200.118 50.5473C200.118 49.8809 200.34 49.3256 200.778 48.8813C201.229 48.4301 201.791 48.208 202.479 48.208C203.166 48.208 203.728 48.4232 204.172 48.8605C204.624 49.2978 204.846 49.8601 204.846 50.5542C204.846 51.2483 204.624 51.7898 204.172 52.234C203.721 52.6713 203.159 52.8934 202.479 52.8934C201.798 52.8934 201.229 52.6783 200.785 52.2479C200.34 51.8175 200.118 51.2553 200.118 50.5542" fill="white"/>
        <path d="M208.254 52.817H207.456V48.2773H208.261L209.809 50.4014L211.288 48.2773H212.045V52.817H211.253V49.5337L209.816 51.5537H209.698L208.254 49.5546V52.817Z" fill="white"/>
        <path d="M218.605 52.817H217.814V49.027H215.787V52.817H214.989V48.2773H218.605V52.817Z" fill="white"/>
        <path d="M223.881 50.9152L223.222 49.2978L222.555 50.9152H223.881ZM221.778 52.8241H220.973L222.896 48.2705H223.597L225.513 52.8241H224.666L224.194 51.6648H222.25L221.778 52.8241Z" fill="white"/>
        <path d="M231.546 52.817H230.754V50.8804H228.679V52.817H227.88V48.2773H228.679V50.1307H230.754V48.2773H231.546V52.817Z" fill="white"/>
        <path d="M242.633 50.5056H243.362V49.0271C243.139 49.0132 242.973 49.0063 242.862 49.0063C242.605 49.0063 242.39 49.0827 242.237 49.2215C242.077 49.3603 242.001 49.5477 242.001 49.7768C242.001 49.9642 242.063 50.1239 242.181 50.2557C242.299 50.3807 242.452 50.464 242.64 50.5056M244.16 52.8241H243.368V51.2553H242.716L241.695 52.8241H240.8L241.959 51.0957C241.716 50.9776 241.522 50.8041 241.383 50.5889C241.237 50.3737 241.161 50.1239 241.161 49.8393C241.161 49.3881 241.32 49.0132 241.633 48.7148C241.945 48.4163 242.41 48.2705 243.035 48.2705C243.042 48.2705 243.237 48.2705 243.604 48.2844C243.792 48.2844 243.979 48.2844 244.16 48.2844V52.8241Z" fill="white"/>
        <path d="M237.565 49.5962L235.184 52.817H234.482V48.2773H235.281V51.5051L237.662 48.2773H238.363V52.817H237.565V49.5962Z" fill="white"/>
    </g>
    <defs>
        <clipPath id="clip0_208_478">
            <rect width="245" height="63" fill="white"/>
        </clipPath>
    </defs>
</svg>
